<svg xmlns="http://www.w3.org/2000/svg"  viewBox="0 0 50 50" width="50px" height="50px"><path d="M 24.994141 2 A 1.0001 1.0001 0 0 0 24.929688 2.0039062 A 1.0001 1.0001 0 0 0 24.888672 2.0078125 A 1.0001 1.0001 0 0 0 24.810547 2.0195312 A 1.0001 1.0001 0 0 0 24.712891 2.0429688 A 1.0001 1.0001 0 0 0 24.623047 2.0742188 A 1.0001 1.0001 0 0 0 24.615234 2.078125 A 1.0001 1.0001 0 0 0 24.585938 2.0898438 A 1.0001 1.0001 0 0 0 24.554688 2.1054688 A 1.0001 1.0001 0 0 0 24.125 2.5117188 L 24.230469 2.3007812 L 4.4765625 14.40625 A 1.0001 1.0001 0 0 0 4 15.257812 L 4 34.767578 A 1.0001 1.0001 0 0 0 4.4765625 35.619141 L 10.476562 39.296875 A 1.0001 1.0001 0 0 0 12 38.443359 L 12 19.177734 L 25 11.210938 L 38 19.177734 L 38 38.443359 A 1.0001 1.0001 0 0 0 39.523438 39.296875 L 45.523438 35.619141 A 1.0001 1.0001 0 0 0 46 34.767578 L 46 15.257812 A 1.0001 1.0001 0 0 0 45.523438 14.40625 L 25.574219 2.1796875 L 25.572266 2.1796875 A 1.0001 1.0001 0 0 0 25.445312 2.1054688 A 1.0001 1.0001 0 0 0 25.363281 2.0683594 A 1.0001 1.0001 0 0 0 25.353516 2.0644531 A 1.0001 1.0001 0 0 0 25.34375 2.0605469 A 1.0001 1.0001 0 0 0 25.257812 2.0351562 A 1.0001 1.0001 0 0 0 25.166016 2.015625 A 1.0001 1.0001 0 0 0 25.160156 2.0136719 A 1.0001 1.0001 0 0 0 25.152344 2.0136719 A 1.0001 1.0001 0 0 0 25.082031 2.0039062 A 1.0001 1.0001 0 0 0 25.033203 2.0019531 A 1.0001 1.0001 0 0 0 24.994141 2 z M 24.109375 3.4511719 A 1.0001 1.0001 0 0 0 24.482422 3.8574219 L 24.949219 4.1445312 L 24.554688 4.3417969 L 24.109375 3.4511719 z M 25.890625 3.4511719 L 25.445312 4.3417969 L 25.050781 4.1445312 L 25.517578 3.8574219 A 1.0001 1.0001 0 0 0 25.890625 3.4511719 z M 24.552734 3.8945312 A 1.0001 1.0001 0 0 0 25.412109 3.9121094 L 25 4.1191406 L 24.552734 3.8945312 z M 25 4.1738281 L 44 15.818359 L 44 34.207031 L 40 36.658203 L 40 18.617188 A 1.0001 1.0001 0 0 0 39.523438 17.765625 L 25.523438 9.1855469 A 1.0001 1.0001 0 0 0 24.476562 9.1855469 L 10.476562 17.765625 A 1.0001 1.0001 0 0 0 10 18.617188 L 10 36.658203 L 6 34.207031 L 6 15.818359 L 25 4.1738281 z M 21.970703 16.958984 A 1.0001 1.0001 0 0 0 21.476562 17.105469 L 15.476562 20.783203 A 1.0001 1.0001 0 0 0 15 21.634766 L 15 41.507812 A 1.0001 1.0001 0 0 0 15.478516 42.361328 L 24.332031 47.783203 L 24.220703 47.634766 A 1.0001 1.0001 0 0 0 24.578125 47.929688 A 1.0001 1.0001 0 0 0 24.763672 48 A 1.0001 1.0001 0 0 0 24.861328 48.021484 A 1.0001 1.0001 0 0 0 24.945312 48.03125 A 1.0001 1.0001 0 0 0 24.960938 48.033203 A 1.0001 1.0001 0 0 0 24.972656 48.033203 A 1.0001 1.0001 0 0 0 25.027344 48.035156 A 1.0001 1.0001 0 0 0 25.078125 48.033203 A 1.0001 1.0001 0 0 0 25.126953 48.029297 A 1.0001 1.0001 0 0 0 25.193359 48.019531 A 1.0001 1.0001 0 0 0 25.291016 47.998047 A 1.0001 1.0001 0 0 0 25.382812 47.966797 A 1.0001 1.0001 0 0 0 25.384766 47.966797 A 1.0001 1.0001 0 0 0 25.388672 47.964844 A 1.0001 1.0001 0 0 0 25.46875 47.929688 A 1.0001 1.0001 0 0 0 25.898438 47.523438 L 25.792969 47.732422 L 34.523438 42.359375 A 1.0001 1.0001 0 0 0 35 41.507812 L 35 21.634766 A 1.0001 1.0001 0 0 0 34.523438 20.783203 L 28.523438 17.105469 A 1.0001 1.0001 0 0 0 27 17.957031 L 27 37.613281 L 25.023438 38.824219 L 23 37.583984 L 23 17.957031 A 1.0001 1.0001 0 0 0 21.970703 16.958984 z M 21 19.744141 L 21 38.144531 A 1.0001 1.0001 0 0 0 21.478516 38.998047 L 24.5 40.849609 A 1.0001 1.0001 0 0 0 25.544922 40.849609 L 28.523438 39.025391 A 1.0001 1.0001 0 0 0 29 38.171875 L 29 19.744141 L 33 22.195312 L 33 40.949219 L 25.021484 45.859375 L 17 40.947266 L 17 22.195312 L 21 19.744141 z M 24.578125 45.693359 L 24.972656 45.890625 L 24.501953 46.179688 A 1.0001 1.0001 0 0 0 24.158203 46.535156 L 24.578125 45.693359 z M 25.320312 45.767578 L 25.818359 46.431641 A 1.0001 1.0001 0 0 0 25.541016 46.177734 L 25.072266 45.890625 L 25.320312 45.767578 z M 25.023438 45.916016 L 25.470703 46.138672 A 1.0001 1.0001 0 0 0 24.601562 46.126953 L 25.023438 45.916016 z"/></svg>